# xmcd
#
# Track frame offsets:
#	150
#	14682
#	27100
#	39082
#	56300
#	69507
#	84260
#	96842
#	110277
#	121992
#	132890
#	146905
#	157307
#	166692
#	179150
#	191217
#
# Disc length: 2695
#
# Revision: 4
# Processed by: cddbd v1.5.1PL0 Copyright (c) Steve Scherf et al.
# Submitted via: dBpowerAMP V4.0
# Normalized: r3:TDELIM( - )
#
DISCID=d90a8510
DTITLE=Various Artist - The Original Soul Men
DYEAR=1900
DGENRE=Soul
TTITLE0=Otis Redding - I've been loving you too long
TTITLE1=Otis Redding - Satisfaction
TTITLE2=Otis Redding - Fa-fa-fa-fa-fa
TTITLE3=Otis Redding - Try a little tenderness
TTITLE4=Percy Sledge - When a man loves a woman
TTITLE5=Percy Sledge - Warm and tender love
TTITLE6=Percy Sledge - Cover me
TTITLE7=Percy Sledge - Take time to know her
TTITLE8=Wilson Pickett - In the midnight hour
TTITLE9=Wilson Pickett - Land of 1000 dances
TTITLE10=Wilson Pickett - Mustang Sally
TTITLE11=Wilson Pickett - Everybody needs somebody to love
TTITLE12=James Brown - Papa's got a brand new bag
TTITLE13=James Brown - Stagger lee
TTITLE14=James Brown - It's a man's world
TTITLE15=James Brown - Prisoner of love
EXTD=
EXTT0=
EXTT1=
EXTT2=
EXTT3=
EXTT4=
EXTT5=
EXTT6=
EXTT7=
EXTT8=
EXTT9=
EXTT10=
EXTT11=
EXTT12=
EXTT13=
EXTT14=
EXTT15=
PLAYORDER=
